<?xml version="1.0" encoding="utf-8"?>
<!-- Generator: Adobe Illustrator 15.0.2, SVG Export Plug-In . SVG Version: 6.00 Build 0)  -->
<!DOCTYPE svg PUBLIC "-//W3C//DTD SVG 1.1//EN" "http://www.w3.org/Graphics/SVG/1.1/DTD/svg11.dtd">
<svg version="1.1" id="Calque_1" xmlns="http://www.w3.org/2000/svg" xmlns:xlink="http://www.w3.org/1999/xlink" x="0px" y="0px"
	 width="16px" height="16px" viewBox="248 248 16 16" enable-background="new 248 248 16 16" xml:space="preserve">
<g id="help">
	<path fill="#2D2D2D" d="M256,248c-4.4,0-8,3.6-8,8s3.6,8,8,8s8-3.6,8-8S260.401,248,256,248z M256.801,261.601H255.2v-1.602h1.601
		V261.601z M258.481,255.439l-0.72,0.72c-0.642,0.56-0.96,1.04-0.96,2.24H255.2V258c0-0.881,0.32-1.68,0.96-2.24l0.959-1.04
		c0.32-0.24,0.479-0.64,0.479-1.12c0-0.88-0.72-1.6-1.599-1.6c-0.88,0-1.6,0.72-1.6,1.6h-1.6c0-1.76,1.44-3.2,3.2-3.2
		c1.76,0,3.2,1.44,3.2,3.2C259.2,254.32,258.88,254.959,258.481,255.439z"/>
</g>
</svg>
